PathFileType	4	(X/Y/Z)	N:\Shared_Data\Ergonomics\New Model Testing\10-03-21\Test Cal 01.trc																																																																																																																																																													
DataRate	CameraRate	NumFrames	NumMarkers	Units	OrigDataRate	OrigDataStartFrame	OrigNumFrames	
100	100	4	59	mm	100	1408	148
Frame#	Time	R_Knee_Med			R_Knee_Lat			R_Thigh_Upper			R_Thigh_Front			R_Thigh_Rear			L_Knee_Med			L_Knee_Lat			L_Thigh_Upper			L_Thigh_Front			L_Thigh_Rear			R_Ankle_Med			R_Ankle_Lat			R_Shank_Upper			R_Shank_Front			R_Shank_Rear			L_Ankle_Med			L_Ankle_Lat			L_Shank_Upper			L_Shank_Front			L_Shank_Rear			R_Heel			R_MTP1			R_MTP5			L_Heel			L_MTP1			L_MTP5			V_Sacral			R_Pelvis			R_ASIS			L_ASIS			L_Pelvis			Clavicle			Chest			R_Acromium			L_Acromium			R_Elbow			R_Arm_Parallel			R_Arm_Adjacent			L_Elbow			L_Arm_Parallel			L_Arm_Adjacent			R_Forearm2			R_Forearm1			R_Forearm_Base			L_Forearm2			L_Forearm1			L_Forearm_Base			R_Hand_Lower			R_Hand_Med			R_Hand_Lat			L_Hand_Lower			L_Hand_Med			L_Hand_Lat			LAJC			RAJC			LHJC			RHJC			LKJC			RKJC			
		X1	Y1	Z1	X2	Y2	Z2	X3	Y3	Z3	X4	Y4	Z4	X5	Y5	Z5	X6	Y6	Z6	X7	Y7	Z7	X8	Y8	Z8	X9	Y9	Z9	X10	Y10	Z10	X11	Y11	Z11	X12	Y12	Z12	X13	Y13	Z13	X14	Y14	Z14	X15	Y15	Z15	X16	Y16	Z16	X17	Y17	Z17	X18	Y18	Z18	X19	Y19	Z19	X20	Y20	Z20	X21	Y21	Z21	X22	Y22	Z22	X23	Y23	Z23	X24	Y24	Z24	X25	Y25	Z25	X26	Y26	Z26	X27	Y27	Z27	X28	Y28	Z28	X29	Y29	Z29	X30	Y30	Z30	X31	Y31	Z31	X32	Y32	Z32	X33	Y33	Z33	X34	Y34	Z34	X35	Y35	Z35	X36	Y36	Z36	X37	Y37	Z37	X38	Y38	Z38	X39	Y39	Z39	X40	Y40	Z40	X41	Y41	Z41	X42	Y42	Z42	X43	Y43	Z43	X44	Y44	Z44	X45	Y45	Z45	X46	Y46	Z46	X47	Y47	Z47	X48	Y48	Z48	X49	Y49	Z49	X50	Y50	Z50	X51	Y51	Z51	X52	Y52	Z52	X53	Y53	Z53	X54	Y54	Z54	X55	Y55	Z55	X56	Y56	Z56	X57	Y57	Z57	X58	Y58	Z58	X59	Y59	Z59	

1408	14.07	-27.251568	498.55664	13.99083	-38.874298	492.65933	148.60403	59.807335	704.37775	128.72031	48.35957	593.61877	73.303902	14.431677	592.44977	139.28296	-24.915756	500.93777	-62.295586	-76.554001	521.18536	-190.99742	27.94841	719.93292	-181.01097	32.270134	610.24493	-131.82487	-21.865622	605.4671	-190.96028	-67.519409	96.282509	51.364445	-109.28693	79.318298	146.25914	-6.1387014	359.37097	111.12647	-32.689774	244.35066	83.285164	-45.661499	246.75801	145.50284	-82.044342	103.42217	-122.75618	-137.19841	73.61779	-203.07922	-42.550026	344.82541	-182.48059	-53.041107	230.1899	-147.92484	-96.089691	246.54939	-206.03722	-158.093	52.33485	85.053642	60.810146	46.529911	94.956734	18.014816	26.436644	170.19247	-168.01677	56.752243	-152.55513	24.919071	58.149635	-154.07069	-2.9247169	19.667734	-231.09763	-197.08882	995.2146	-15.169856	-13.766757	1026.4136	188.20294	43.16737	994.54932	124.88396	25.990767	984.8385	-140.69463	-47.581787	1020.7187	-211.65622	60.181957	1536.2576	-19.913589	63.987068	1340.6844	-19.216261	-37.638943	1492.8873	171.82648	-71.751114	1503.5126	-178.07719	-112.73811	1154.5367	277.25156	-108.44868	1229.3923	272.1044	-26.104248	1229.7777	251.76141	-153.08458	1158.2683	-290.3728	-148.76816	1234.1656	-291.60892	-67.857849	1245.929	-284.49823	-9.7575893	1137.9769	275.93423	11.954288	1015.0759	291.87238	36.516846	920.19666	300.79196	-35.285553	1119.8766	-301.80746	-16.858961	1031.6405	-313.27042	7.7212825	946.49927	-318.65875	44.341499	865.95197	309.75693	83.347572	828.16895	274.42484	22.043707	819.59949	325.73407	22.140873	885.0611	-321.28531	56.137836	843.04578	-302.92725	-0.99295473	837.36768	-340.50104	-109.621376	88.51998	-162.9177	-88.4031695	87.8004035	98.8117925	-39.21640773	897.3198808	-95.19972379	-26.93817328	904.2614003	94.64201576	-50.7348785	511.061565	-126.646503	-33.062933	495.607985	81.29743
1409	14.08	-27.26177	498.55521	14.007456	-38.849663	492.64676	148.60164	59.84008	704.38245	128.67395	48.346809	593.62219	73.257538	14.51192	592.44061	139.2655	-24.923532	500.91498	-62.302723	-76.5317	521.18994	-191.04581	27.936255	719.93298	-181.00197	32.259781	610.23889	-131.82352	-21.869047	605.45538	-190.96251	-67.515511	96.292671	51.370125	-109.29195	79.318573	146.26282	-6.1287055	359.35553	111.11504	-32.7033	244.1487	83.505989	-45.664097	246.74158	145.50571	-82.041229	103.42364	-122.76406	-137.19997	73.617851	-203.08394	-42.529888	344.82129	-182.48926	-53.038662	230.18144	-147.92804	-96.074898	246.55379	-206.04539	-158.05305	52.275719	85.084656	60.808968	46.535236	94.962189	18.004349	26.414986	170.20692	-168.00836	56.752083	-152.53934	24.915894	58.144352	-154.06953	-2.9220972	19.670618	-231.06404	-197.0946	995.23981	-15.148973	-13.748119	1026.4161	188.19696	43.168911	994.552	124.88699	25.985163	984.82477	-140.68794	-47.59201	1020.7088	-211.62344	60.260612	1536.1598	-19.975533	64.050369	1340.7056	-19.270821	-37.531662	1492.9072	171.853	-71.714569	1503.549	-178.05565	-112.52409	1154.4961	277.26633	-108.23552	1229.3936	272.1329	-25.918297	1229.78	251.69873	-152.95648	1158.249	-290.39676	-148.6358	1234.1862	-291.63684	-67.76268	1245.9663	-284.52765	-9.5415316	1137.9896	275.88998	12.19306	1015.0948	291.77475	36.864243	920.26355	300.71301	-35.10965	1119.9716	-301.75653	-16.565813	1031.7599	-313.20343	8.0277405	946.61755	-318.5907	44.69561	866.00055	309.6022	83.722717	828.2832	274.3295	22.464596	819.64618	325.6015	22.51956	885.1792	-321.18799	56.567562	843.21008	-302.80048	-0.56349993	837.47595	-340.37552	-109.6205995	88.5207455	-162.924	-88.4037305	87.805622	98.8164725	-39.23354296	897.3188004	-95.18577374	-26.95019193	904.2720554	94.65349116	-50.727616	511.05246	-126.6742665	-33.0557165	495.600985	81.304548
1410	14.09	-27.258392	498.54419	14.016847	-38.842869	492.63647	148.61484	59.859234	704.38635	128.65706	48.381798	593.62756	73.230484	14.554167	592.43604	139.26971	-24.921532	500.90997	-62.301517	-76.508759	521.18109	-191.0686	27.921303	719.91486	-181.01085	32.256588	610.24359	-131.83134	-21.865803	605.44647	-190.95659	-67.509094	96.27507	51.37466	-109.30238	79.319275	146.26733	-6.1314716	359.34622	111.1226	-32.685795	244.34492	83.276192	-45.65057	246.73656	145.50578	-82.048325	103.41723	-122.76476	-137.19695	73.612221	-203.08192	-42.53141	344.80356	-182.48189	-53.025547	230.17737	-147.93675	-96.065979	246.54405	-206.03682	-158.084	52.300861	85.076248	60.799824	46.535088	94.971802	18.001762	26.421543	170.22971	-168.01851	56.750656	-152.5545	24.929977	58.141022	-154.06595	-2.9161079	19.663219	-231.08487	-197.10974	995.25769	-15.113342	-13.750343	1026.4194	188.19182	43.16143	994.54712	124.89335	25.986712	984.8114	-140.69566	-47.607353	1020.7063	-211.62283	60.233932	1535.9873	-20.042711	64.083931	1340.7216	-19.310211	-37.444149	1492.9188	171.83096	-71.705925	1503.5831	-178.02452	-112.30523	1154.451	277.29434	-108.0435	1229.3892	272.15405	-25.737087	1229.7991	251.68127	-152.82529	1158.2485	-290.44043	-148.51997	1234.2078	-291.65604	-67.663094	1246.0098	-284.54361	-9.3492937	1138.0125	275.84219	12.404558	1015.09	291.66043	37.159466	920.28369	300.58368	-35.042038	1119.9885	-301.82458	-16.322882	1031.8273	-313.13052	8.3101759	946.69696	-318.56052	45.033634	866.0484	309.44992	84.087372	828.38531	274.21469	22.801758	819.6756	325.54242	22.834158	885.27954	-321.11758	56.942879	843.36261	-302.70276	-0.15133436	837.55219	-340.07077	-109.6226375	88.5147255	-162.92334	-88.405737	87.7971725	98.820995	-39.24613428	897.3102442	-95.19027242	-26.9692868	904.2695404	94.65830441	-50.7151455	511.04553	-126.6850585	-33.0506305	495.59033	81.3158435
1411	14.1	-27.244175	498.53214	14.021313	-38.822273	492.63861	148.6127	59.877193	704.39038	128.66267	48.395042	593.63654	73.237373	14.591445	592.42053	139.25905	-24.878624	500.92245	-62.311081	-76.498573	521.17389	-191.06258	27.918306	719.93036	-180.99699	32.259872	610.23767	-131.83354	-21.863729	605.44391	-190.97397	-67.509834	96.286354	51.377823	-109.29136	79.308548	146.27081	-6.1302834	359.33865	111.13607	-32.688286	244.33	83.280914	-45.654545	246.73071	145.50861	-82.05809	103.41505	-122.79304	-137.20303	73.610062	-203.08574	-42.52631	344.80206	-182.47638	-53.032291	230.18196	-147.92418	-96.063049	246.54611	-206.04453	-158.08508	52.296391	85.071548	60.801571	46.530525	94.963623	18.025869	26.434221	170.14497	-168.01253	56.752377	-152.56067	24.929466	58.141304	-154.07523	-2.9089751	19.657486	-231.1143	-197.13049	995.27783	-15.105108	-13.764245	1026.4227	188.18733	43.150867	994.54767	124.88244	25.981346	984.78827	-140.75237	-47.632172	1020.7126	-211.65425	60.146599	1535.7839	-20.106644	64.144577	1340.7444	-19.353338	-37.36422	1492.9434	171.82898	-71.703209	1503.6219	-178.01395	-112.11494	1154.4412	277.27188	-107.87551	1229.3928	272.15671	-25.579453	1229.8142	251.63994	-152.69783	1158.2366	-290.46448	-148.77469	1234.2158	-291.71399	-67.607758	1246.022	-284.57062	-9.1844568	1138.0414	275.79614	12.62004	1015.0932	291.56482	37.427372	920.3158	300.47467	-34.906349	1120.0509	-301.79965	-16.091871	1031.9341	-313.11032	8.5459385	946.77118	-318.54086	45.315247	866.09845	309.29614	84.377968	828.49048	274.13351	23.092266	819.68188	325.42679	23.116428	885.37891	-321.05185	57.264473	843.51013	-302.64047	0.17445093	837.65283	-340.02954	-109.63056	88.512556	-162.93939	-88.400597	87.797451	98.8243165	-39.26713913	897.2861705	-95.2327767	-26.99416984	904.2623008	94.64601287	-50.6885985	511.04817	-126.6868305	-33.033224	495.585375	81.3170065
